<svg xmlns="http://www.w3.org/2000/svg" viewBox="0 0 831.94 831.94"><g id="outerRing"><circle cx="415.97" cy="415.97" r="406.97" style="fill:none;stroke:#124689;stroke-miterlimit:10;stroke-width:18px"/></g><g id="text"><g id="Computer_Association_of_NIT_Repair_Team._To_be_at_the_intersction_of_technolgy_and_liberal_arts." data-name="Computer Association of NIT, Repair Team. To be at the intersction of technolgy and liberal arts."><path d="M316.26,85A16,16,0,0,1,307,92.46q-7.95,2.79-14.29-.72t-9.48-12.45q-3.39-9.65-.05-16.69A16.35,16.35,0,0,1,293.07,54q9.3-3.27,15.74,1.33a14,14,0,0,1,5,6l-7.7,2.7a11,11,0,0,0-3.33-3.32c-2-1.11-4.32-1.19-7.07-.22a8.16,8.16,0,0,0-5.43,5.71q-1.25,4.25.94,10.44T297,85a8.56,8.56,0,0,0,7.6.8A7.87,7.87,0,0,0,309.84,81a12.18,12.18,0,0,0,.45-5l7.63-2.67A17.59,17.59,0,0,1,316.26,85Z" transform="translate(-5.03 -5.03)" style="fill:#124689"/><path d="M344.43,54.64a16.87,16.87,0,0,1,6.1,9.68,16.73,16.73,0,0,1-1,11.43q-2.49,5.25-9.73,7T327.94,81a16.73,16.73,0,0,1-6.11-9.71,16.85,16.85,0,0,1,1-11.39q2.47-5.33,9.72-7.06T344.43,54.64ZM334,59a6,6,0,0,0-4.41,3.48c-.8,1.8-.85,4.1-.17,6.92a10.9,10.9,0,0,0,3.31,6.1,6.69,6.69,0,0,0,9.9-2.39,11,11,0,0,0,.16-6.93q-1-4.23-3.3-6.09A6,6,0,0,0,334,59Z" transform="translate(-5.03 -5.03)" style="fill:#124689"/><path d="M371.48,54.46a3.71,3.71,0,0,0-4-1.62q-3.21.4-4.06,2.61a8.2,8.2,0,0,0-.17,3.6l2.13,17.25-7.6.94-3.53-28.61,7.28-.9.52,4.18a12.15,12.15,0,0,1,2.24-3.51,10.47,10.47,0,0,1,10.93-1.59,8.45,8.45,0,0,1,2.9,3.14,9.6,9.6,0,0,1,3.2-4.16,11.27,11.27,0,0,1,5-1.82,10.18,10.18,0,0,1,3.83.28,8.41,8.41,0,0,1,3.66,2.16,8.29,8.29,0,0,1,2.08,3.48,25.33,25.33,0,0,1,.79,4.2l2.18,18.08-7.68.94L389,54.87a6.08,6.08,0,0,0-.86-2.62,3.77,3.77,0,0,0-3.93-1.55,4.36,4.36,0,0,0-4,3.11,8.29,8.29,0,0,0-.2,3.36l2.11,17.07-7.55.93-2.1-17.07A9.56,9.56,0,0,0,371.48,54.46Z" transform="translate(-5.03 -5.03)" style="fill:#124689"/><path d="M428.53,46.22q3.53,3.7,3.6,10.93c0,5.09-1.06,9-3.33,11.67A11.08,11.08,0,0,1,420,72.9a9.18,9.18,0,0,1-5.73-1.67,11.18,11.18,0,0,1-2.47-2.76l.14,15-7.47.07-.37-40.24,7.23-.07,0,4.26a12.3,12.3,0,0,1,2.57-3,9.54,9.54,0,0,1,6-2A11.38,11.38,0,0,1,428.53,46.22ZM424.34,57.6a11.4,11.4,0,0,0-1.58-5.9,5.31,5.31,0,0,0-5-2.52,5.63,5.63,0,0,0-5.61,4,14.66,14.66,0,0,0-.75,5.25c0,3.36.95,5.71,2.75,7.05A6.06,6.06,0,0,0,418,66.59a5.44,5.44,0,0,0,4.78-2.49A11.37,11.37,0,0,0,424.34,57.6Z" transform="translate(-5.03 -5.03)" style="fill:#124689"/><path d="M455.48,69.68c-.08.08-.28.33-.6.74a4.9,4.9,0,0,1-1.1,1.08,10.25,10.25,0,0,1-3.6,1.88,11.61,11.61,0,0,1-3.91.26q-6.39-.52-8.23-5.31a17.82,17.82,0,0,1-.62-7.58l1.45-17.34,7.71.64L445.13,61.4a9.16,9.16,0,0,0,.28,3.74c.56,1.52,1.85,2.36,3.85,2.53q3.86.31,5.54-2.68a11.32,11.32,0,0,0,1.12-4.4l1.3-15.66,7.63.64-2.4,28.78-7.31-.61Z" transform="translate(-5.03 -5.03)" style="fill:#124689"/><path d="M482.54,72.06l-.86,5.57-3.56-.41c-3.54-.43-5.86-1.41-6.94-3a5.54,5.54,0,0,1-.65-4.15l2.73-17.57-4-.62.82-5.31,4,.61,1.23-8,7.39,1.15-1.24,8,4.64.71-.82,5.32-4.64-.72L478.3,68.77a3.46,3.46,0,0,0,.11,2.26c.25.33,1.14.62,2.66.85l.72.1Z" transform="translate(-5.03 -5.03)" style="fill:#124689"/><path d="M511.61,75.11a9.55,9.55,0,0,1-3.75,4.51q-4.55,3.3-11.06,1.84a14.6,14.6,0,0,1-8.71-5.59c-2.23-2.92-2.75-7-1.59-12.19q1.63-7.32,6.22-10.39a13,13,0,0,1,10.51-1.75,15.21,15.21,0,0,1,6,2.73A11.4,11.4,0,0,1,513,59.48a14.49,14.49,0,0,1,.84,6.3,36.81,36.81,0,0,1-1,5.63L493.53,67.1q-.79,4.28,1.33,6.54a6.45,6.45,0,0,0,3.43,1.88,5.42,5.42,0,0,0,4-.46,6.46,6.46,0,0,0,1.81-1.64Zm-5.36-10.27a6.53,6.53,0,0,0-.78-4.83,5.63,5.63,0,0,0-3.6-2.4,5.13,5.13,0,0,0-4.33.72,8.17,8.17,0,0,0-2.74,4Z" transform="translate(-5.03 -5.03)" style="fill:#124689"/><path d="M534.59,68q-4.37-1.31-6.72,1.09a11.44,11.44,0,0,0-2.31,4.67l-4,13.22-7.29-2.19,8.31-27.66,6.9,2.08L528.06,64a16.07,16.07,0,0,1,4.05-2.91A8.34,8.34,0,0,1,537.9,61l.34.12.61.23-2.22,7.4c-.44-.18-.84-.34-1.19-.46Z" transform="translate(-5.03 -5.03)" style="fill:#124689"/><path d="M573.42,98.24l-13.13-5.87-5.74,6.23-7.8-3.48,28.66-30,8.42,3.76-3.3,41.3-8.08-3.61Zm.67-7.07,1.81-16L565,87.13Z" transform="translate(-5.03 -5.03)" style="fill:#124689"/><path d="M613.93,97.69q1.89,3.56-.29,8.42l-6.57-3.72a4.39,4.39,0,0,0,.42-2.41c-.22-1.3-1.19-2.45-2.93-3.43a6.09,6.09,0,0,0-3.43-1.06,2.21,2.21,0,0,0-1.8,1.05,2,2,0,0,0,0,2.19c.45.72,2.38,2.62,5.82,5.7a14.56,14.56,0,0,1,4.3,6.11,7.32,7.32,0,0,1-.74,5.83,8.76,8.76,0,0,1-6.23,4.52q-4.12.8-9.93-2.5t-7.34-7.45a9.4,9.4,0,0,1,.79-8l6.66,3.78a5.07,5.07,0,0,0-.51,3q.48,2,3.78,3.87a8,8,0,0,0,3.4,1.17,2.23,2.23,0,0,0,2.15-3.29q-.59-1.11-5.72-5.86c-2.45-2.32-3.95-4.34-4.52-6.06a6.57,6.57,0,0,1,.81-5.51,9,9,0,0,1,6.12-4.44q4.14-1,9.1,1.85A16.3,16.3,0,0,1,613.93,97.69Z" transform="translate(-5.03 -5.03)" style="fill:#124689"/><path d="M640.31,114.93q1.58,3.7-1,8.37L633.08,119a4.42,4.42,0,0,0,.62-2.36c-.11-1.32-1-2.54-2.63-3.66a6.09,6.09,0,0,0-3.34-1.35,2.22,2.22,0,0,0-1.88.9,2,2,0,0,0-.14,2.18c.39.76,2.16,2.81,5.32,6.17a14.45,14.45,0,0,1,3.78,6.45,7.28,7.28,0,0,1-1.22,5.74,8.76,8.76,0,0,1-6.59,4q-4.17.45-9.68-3.31t-6.69-8a9.32,9.32,0,0,1,1.45-7.88l6.32,4.32a5.08,5.08,0,0,0-.76,2.95c.21,1.35,1.35,2.75,3.44,4.17a8,8,0,0,0,3.3,1.45,2.23,2.23,0,0,0,2.42-3.1c-.34-.77-2.08-2.87-5.22-6.32q-3.36-3.77-4-6.41a6.61,6.61,0,0,1,1.27-5.43,9,9,0,0,1,6.47-3.91q4.2-.6,8.92,2.61A16.36,16.36,0,0,1,640.31,114.93Z" transform="translate(-5.03 -5.03)" style="fill:#124689"/><path d="M666.84,138.75a18,18,0,0,1-13.76,16.8q-5.69,1.17-11.45-3.54t-5.73-10.53a18,18,0,0,1,13.76-16.8q5.75-1.23,11.5,3.49T666.84,138.75Zm-9.75-5.66a6,6,0,0,0-5.43-1.41c-1.92.45-3.79,1.8-5.63,4a10.92,10.92,0,0,0-2.86,6.32,6.68,6.68,0,0,0,7.88,6.45,13.53,13.53,0,0,0,8.49-10.36A6,6,0,0,0,657.09,133.09Z" transform="translate(-5.03 -5.03)" style="fill:#124689"/><path d="M687.78,168l-5.53-5.41a6.66,6.66,0,0,0,1.27-2.85,4.55,4.55,0,0,0-1.6-4,5.2,5.2,0,0,0-6.38-.94,15.67,15.67,0,0,0-4.27,3.3,14.53,14.53,0,0,0-3,4.18,5,5,0,0,0,1.11,6.13A4.48,4.48,0,0,0,673,170a7,7,0,0,0,3.56-1.71l5.51,5.4a12.64,12.64,0,0,1-6.34,2.91q-6,1.06-11-3.82t-4.44-10.12q.55-5.25,5.16-10,5.22-5.32,10.7-5.73t10,4a15.11,15.11,0,0,1,4.64,8Q691.65,163.11,687.78,168Z" transform="translate(-5.03 -5.03)" style="fill:#124689"/><path d="M704.31,171l-21.47,19.33-5.12-5.7,21.47-19.32Zm7.74-7-5.18,4.66L701.74,163l5.18-4.66Z" transform="translate(-5.03 -5.03)" style="fill:#124689"/><path d="M708.15,180.07q4.85,0,9.37,5.7a18.18,18.18,0,0,1,3.75,7.77q.83,4.05-3.28,7.29l-10.38,8.23c-.72.57-1.59,1.27-2.59,2.11a4.25,4.25,0,0,0-1.3,1.6,2.73,2.73,0,0,0,0,1.42l-.88.69-5.09-6.44a8.22,8.22,0,0,1,1-1.4c.34-.38.76-.8,1.24-1.25a15.32,15.32,0,0,1-4.5-1,10.82,10.82,0,0,1-4.53-3.45,9.48,9.48,0,0,1-2.26-6.47,8,8,0,0,1,3.39-5.94q4.17-3.3,8.59-1.57a18.21,18.21,0,0,1,5.57,4l1.84,1.81a11.93,11.93,0,0,0,2.38,1.94,2.25,2.25,0,0,0,2.68-.07,2.53,2.53,0,0,0,1.16-2.48,7.67,7.67,0,0,0-1.71-3.26,4.74,4.74,0,0,0-3.39-2.15,5.55,5.55,0,0,0-2.74.82L702,182.28A11.07,11.07,0,0,1,708.15,180.07Zm-12.43,17a3.91,3.91,0,0,0,.93,2.58,7.68,7.68,0,0,0,3.91,2.64c1.59.48,3.4,0,5.41-1.57l2.2-1.74a7.86,7.86,0,0,1-1.46-.69,11.71,11.71,0,0,1-1.65-1.24l-1.3-1.14a10.83,10.83,0,0,0-2.93-2,3.45,3.45,0,0,0-3.6.62A3.31,3.31,0,0,0,695.72,197.07Z" transform="translate(-5.03 -5.03)" style="fill:#124689"/><path d="M717.07,226.29l-4.65,3.19-2.13-2.87q-3.19-4.31-2.62-7.07a5.5,5.5,0,0,1,2.58-3.32l14.65-10.08-2.29-3.31,4.43-3.05,2.29,3.32,6.63-4.57,4.24,6.16-6.64,4.56,2.66,3.87-4.43,3-2.66-3.87L716.56,221c-1,.67-1.5,1.21-1.57,1.62s.33,1.26,1.2,2.52l.42.6Z" transform="translate(-5.03 -5.03)" style="fill:#124689"/><path d="M743.65,224.47l-24.54,15.25-4-6.51L739.6,218Zm8.84-5.49-5.92,3.68-4-6.51,5.92-3.67Z" transform="translate(-5.03 -5.03)" style="fill:#124689"/><path d="M756.18,254.54A17.95,17.95,0,0,1,737,264.75c-3.81-.73-6.87-3.29-9.21-7.67s-2.74-8.36-1.23-11.93A17.93,17.93,0,0,1,745.74,235c3.85.71,6.93,3.26,9.27,7.64S757.73,251,756.18,254.54Zm-6.82-9a6,6,0,0,0-4.47-3.4,10.81,10.81,0,0,0-6.74,1.56,11,11,0,0,0-5.08,4.73,6.69,6.69,0,0,0,4.79,9,11,11,0,0,0,6.75-1.59q3.84-2,5.07-4.71A6,6,0,0,0,749.36,245.57Z" transform="translate(-5.03 -5.03)" style="fill:#124689"/><path d="M764.21,277.18a5.26,5.26,0,0,0-5-3.65,11.13,11.13,0,0,0-4.35,1l-14.47,5.91-2.85-7,26.7-10.89L767,269.3l-3.9,1.59a13.05,13.05,0,0,1,4,1.34,9.6,9.6,0,0,1,3.85,4.81,11.13,11.13,0,0,1,.59,7.67q-1.1,3.53-6.12,5.57l-18,7.35-2.92-7.16,16.26-6.64a8,8,0,0,0,3-1.88Q765.4,280.08,764.21,277.18Z" transform="translate(-5.03 -5.03)" style="fill:#124689"/><path d="M785.29,335.05a18,18,0,0,1-21,5.63q-5.31-2.35-7.24-9.55t1.48-11.89a18,18,0,0,1,21-5.63q5.37,2.34,7.31,9.53T785.29,335.05Zm-4.63-10.28a6.05,6.05,0,0,0-3.58-4.32,13.43,13.43,0,0,0-12.94,3.48,6.7,6.7,0,0,0,2.64,9.84,11,11,0,0,0,6.94,0c2.79-.75,4.8-1.9,6-3.45A6,6,0,0,0,780.66,324.77Z" transform="translate(-5.03 -5.03)" style="fill:#124689"/><path d="M803.7,355.24l-6,1.17c0-.43-.12-1.14-.29-2.12a2.44,2.44,0,0,0-1-1.9,2.42,2.42,0,0,0-1.63-.27l-2.4.47,1,4.86-5.23,1-.95-4.87L764.21,358l-1.43-7.38,22.86-4.44-.8-4.14,5.23-1,.78,4.05,1.82-.35q4.56-.88,6.57.32,2.87,1.11,4.06,7.28c.09.47.16.9.21,1.28S803.62,354.57,803.7,355.24Z" transform="translate(-5.03 -5.03)" style="fill:#124689"/><path d="M770.25,414.12l-.54-8.14,26.63-17.74-27.68,1.82-.5-7.58,39-2.58.57,8.54-26.18,17.32,27.2-1.8.5,7.59Z" transform="translate(-5.03 -5.03)" style="fill:#124689"/><path d="M769.49,438.62l.79-17.69,39,1.74-.85,18.95q-.42,7.17-4.6,10a9.9,9.9,0,0,1-6,1.53,8.69,8.69,0,0,1-5.66-2.05,9.37,9.37,0,0,1-2.09-3.06,8.7,8.7,0,0,1-3.65,4.35,10.25,10.25,0,0,1-5.78,1.27,11.3,11.3,0,0,1-6.14-2,10.82,10.82,0,0,1-4.71-7.44A27.66,27.66,0,0,1,769.49,438.62Zm17.19.57.43-9.71-10.4-.46-.42,9.58a9.33,9.33,0,0,0,.51,4q1.16,2.64,4.75,2.81a4.21,4.21,0,0,0,4.3-2.33A10.15,10.15,0,0,0,786.68,439.19Zm7.26,4.38a3.64,3.64,0,0,0,3.34,1.74,3.5,3.5,0,0,0,3.7-2,14.83,14.83,0,0,0,.81-4.63l.38-8.57-8.6-.38-.42,9.58A7.87,7.87,0,0,0,793.94,443.57Z" transform="translate(-5.03 -5.03)" style="fill:#124689"/><path d="M802.67,492.27l-6.84-1,1.68-11.56-31.8-4.63,1.18-8.13,31.8,4.63L800.38,460l6.85,1Z" transform="translate(-5.03 -5.03)" style="fill:#124689"/><path d="M783.55,559.89,777,557.68l3.73-11.08-30.45-10.26,2.62-7.78,30.46,10.26,3.75-11.12,6.55,2.2Z" transform="translate(-5.03 -5.03)" style="fill:#124689"/><path d="M760.64,578.18a18,18,0,0,1-20-8.54q-2.71-5.13.21-12c2-4.56,4.79-7.38,8.52-8.43a17.93,17.93,0,0,1,20,8.53q2.79,5.16-.14,12T760.64,578.18Zm2.72-10.95a6,6,0,0,0-.16-5.61q-1.44-2.57-5.45-4.27a10.87,10.87,0,0,0-6.86-1,6.69,6.69,0,0,0-4,9.37A13.5,13.5,0,0,0,759.2,571,6,6,0,0,0,763.36,567.23Z" transform="translate(-5.03 -5.03)" style="fill:#124689"/><path d="M718,602.7a10.34,10.34,0,0,1,4.18-4.19,11.38,11.38,0,0,1,4-.88L723,595.76l3.81-6.34,33.44,20.08L756.38,616l-11.9-7.15a11,11,0,0,1,1,4.29,9.26,9.26,0,0,1-1.54,5.13,10.66,10.66,0,0,1-8.11,5.53q-5.18.64-10.74-2.69a18.67,18.67,0,0,1-7.93-8.47A10.32,10.32,0,0,1,718,602.7Zm10.55,11.15a13.65,13.65,0,0,0,4.77,1.94,5.53,5.53,0,0,0,6.13-2.8,5.63,5.63,0,0,0-.3-6.77,14,14,0,0,0-4-3.32,10.74,10.74,0,0,0-6.12-1.76,5.64,5.64,0,0,0-4.67,3,5.19,5.19,0,0,0-.31,5.1A10.76,10.76,0,0,0,728.5,613.85Z" transform="translate(-5.03 -5.03)" style="fill:#124689"/><path d="M701.86,642.42a9.58,9.58,0,0,1-2.64-5.24q-1.22-5.48,2.72-10.87a14.66,14.66,0,0,1,8.59-5.77q5.36-1.32,11.82,3.4,6.06,4.42,7,9.85a13,13,0,0,1-2.58,10.33,15.16,15.16,0,0,1-4.91,4.45,11.45,11.45,0,0,1-6.26,1.34,14.59,14.59,0,0,1-6.11-1.73,39.46,39.46,0,0,1-4.77-3.18l11.64-16q-3.6-2.43-6.53-1.38a6.39,6.39,0,0,0-3.09,2.4,5.41,5.41,0,0,0-1.16,3.84,6.34,6.34,0,0,0,.77,2.31Zm11.56-.83a6.54,6.54,0,0,0,4.74,1.21,5.65,5.65,0,0,0,3.63-2.35,5.11,5.11,0,0,0,1.07-4.25,8.16,8.16,0,0,0-2.53-4.09Z" transform="translate(-5.03 -5.03)" style="fill:#124689"/><path d="M699.78,671.58q.71,4.8-4.32,10.08a18.14,18.14,0,0,1-7.16,4.81q-3.9,1.38-7.69-2.21l-9.6-9.13c-.67-.63-1.49-1.39-2.46-2.26a4.14,4.14,0,0,0-1.77-1.06,2.66,2.66,0,0,0-1.4.21l-.81-.77,5.66-6a8.62,8.62,0,0,1,1.52.79q.64.43,1.41,1a15.58,15.58,0,0,1,.39-4.6,10.86,10.86,0,0,1,2.78-5,9.51,9.51,0,0,1,6.08-3.15,8,8,0,0,1,6.36,2.52q3.87,3.66,2.77,8.28a18.16,18.16,0,0,1-3.22,6.08l-1.54,2.09A11.92,11.92,0,0,0,685.2,676a2.27,2.27,0,0,0,.44,2.65,2.56,2.56,0,0,0,2.63.8,7.84,7.84,0,0,0,3-2.16,4.7,4.7,0,0,0,1.65-3.66,5.56,5.56,0,0,0-1.19-2.59l5-5.28A11,11,0,0,1,699.78,671.58Zm-18.59-9.9a3.91,3.91,0,0,0-2.42,1.28,7.64,7.64,0,0,0-2,4.24q-.37,2.47,2.31,5.14l2,1.93a7.91,7.91,0,0,1,.46-1.54,12.3,12.3,0,0,1,1-1.81l.93-1.45a11,11,0,0,0,1.61-3.19A3.48,3.48,0,0,0,684,662.8,3.33,3.33,0,0,0,681.19,661.68Z" transform="translate(-5.03 -5.03)" style="fill:#124689"/><path d="M655.29,686.93l-3.82-4.15,2.54-2.52c2.54-2.51,4.75-3.7,6.64-3.59a5.5,5.5,0,0,1,3.64,2.09l12,13.08,3-2.73,3.64,4-3,2.72,5.45,5.93-5.5,5.06-5.45-5.93L671,704l-3.65-4,3.45-3.17L660.5,685.67c-.8-.87-1.41-1.32-1.83-1.33s-1.19.51-2.32,1.55c-.17.15-.35.32-.53.5Z" transform="translate(-5.03 -5.03)" style="fill:#124689"/><path d="M628.86,708l-3.41-4.5,2.77-2.26q4.15-3.37,6.95-2.93a5.48,5.48,0,0,1,3.43,2.42L649.33,715l3.21-2.43,3.25,4.29-3.22,2.43,4.86,6.42-5.95,4.51-4.86-6.42-3.74,2.82-3.25-4.28,3.74-2.84-9.21-12.17c-.71-.94-1.28-1.43-1.69-1.49s-1.24.39-2.46,1.32c-.19.13-.38.29-.58.45Z" transform="translate(-5.03 -5.03)" style="fill:#124689"/><path d="M609.7,734.71l-9.24-14.22,6.47-4.2L616.5,731a7.76,7.76,0,0,0,2.72,2.73c1.3.75,2.77.6,4.38-.45a5.41,5.41,0,0,0,2.72-4.16,9.14,9.14,0,0,0-1.81-5.63L616,710.4l6.31-4.1,21.2,32.64L637.2,743l-7.52-11.57a9.27,9.27,0,0,1-1.28,5,10.65,10.65,0,0,1-3.27,3.31,12.21,12.21,0,0,1-4.58,1.87,8.44,8.44,0,0,1-4.56-.42,7.55,7.55,0,0,1-3-2A40.73,40.73,0,0,1,609.7,734.71Z" transform="translate(-5.03 -5.03)" style="fill:#124689"/><path d="M577.14,742.7a9.58,9.58,0,0,1-.08-5.87q1.29-5.46,7.2-8.59a14.61,14.61,0,0,1,10.25-1.41q5.38,1.15,9.14,8.23,3.51,6.62,2,11.94a13,13,0,0,1-6.84,8.16,15.12,15.12,0,0,1-6.37,1.84,11.33,11.33,0,0,1-6.21-1.53,14.59,14.59,0,0,1-4.74-4.24,39,39,0,0,1-2.89-4.94L596.08,737q-2.18-3.76-5.26-4.11a6.41,6.41,0,0,0-3.83.81,5.33,5.33,0,0,0-2.73,2.94,6.19,6.19,0,0,0-.31,2.42ZM587.88,747a6.62,6.62,0,0,0,3.74,3.16,5.65,5.65,0,0,0,4.29-.52,5.14,5.14,0,0,0,2.83-3.36,8.25,8.25,0,0,0-.49-4.78Z" transform="translate(-5.03 -5.03)" style="fill:#124689"/><path d="M557.76,773.14,547,746.32l7.11-2.84,10.74,26.81Zm3.87,9.66L559,776.33l7.11-2.84,2.59,6.47Z" transform="translate(-5.03 -5.03)" style="fill:#124689"/><path d="M535.67,775.06a5.25,5.25,0,0,0,4-4.73,11.3,11.3,0,0,0-.66-4.41l-4.86-14.86,7.16-2.34,9,27.4-6.93,2.27-1.31-4a12.82,12.82,0,0,1-1.62,3.91,9.6,9.6,0,0,1-5.07,3.49,11.19,11.19,0,0,1-7.7.05c-2.29-.9-4-3.07-5.12-6.51l-6-18.49,7.36-2.4,5.45,16.7a8.06,8.06,0,0,0,1.67,3.14C532.11,775.44,533.69,775.71,535.67,775.06Z" transform="translate(-5.03 -5.03)" style="fill:#124689"/><path d="M499.22,766.64l-1.37-5.47,3.44-1q5.15-1.49,7.54,0a5.55,5.55,0,0,1,2.21,3.57L515.36,781l3.9-1,1.31,5.22-3.91,1,2,7.81-7.25,1.81L509.42,788l-4.55,1.14L503.56,784l4.55-1.14L504.4,768c-.29-1.15-.61-1.83-1-2s-1.29-.12-2.78.25c-.23,0-.46.12-.71.19Z" transform="translate(-5.03 -5.03)" style="fill:#124689"/><path d="M471.25,775.12a9.54,9.54,0,0,1,1.71-5.61q2.9-4.82,9.47-6a14.62,14.62,0,0,1,10.2,1.76q4.77,2.75,6.2,10.62,1.32,7.38-1.7,12a13,13,0,0,1-9,5.7,15.31,15.31,0,0,1-6.63-.18,11.38,11.38,0,0,1-5.45-3.35,14.52,14.52,0,0,1-3.23-5.48,39.71,39.71,0,0,1-1.25-5.59L491,775.48c-.62-2.83-1.87-4.67-3.77-5.51a6.39,6.39,0,0,0-3.89-.4,5.36,5.36,0,0,0-3.49,2,6.3,6.3,0,0,0-1,2.21Zm8.92,7.38a6.56,6.56,0,0,0,2.6,4.15,5.63,5.63,0,0,0,4.25.81,5.12,5.12,0,0,0,3.71-2.34,8.22,8.22,0,0,0,1-4.7Z" transform="translate(-5.03 -5.03)" style="fill:#124689"/><path d="M452.81,790.57q4.53-.48,5.77-3.6a11.5,11.5,0,0,0,.32-5.2L457.44,768l7.56-.8L468.06,796l-7.16.77-.54-5a15.64,15.64,0,0,1-2.61,4.25,8.27,8.27,0,0,1-5.29,2.35l-.36,0-.65,0-.82-7.69c.48,0,.91,0,1.28,0S452.58,790.6,452.81,790.57Z" transform="translate(-5.03 -5.03)" style="fill:#124689"/><path d="M425.73,797.57c-2.31-1.37-3.7-3.82-4.15-7.34l7.54-.26a4.49,4.49,0,0,0,.9,2.28c.87,1,2.3,1.46,4.29,1.39a6.18,6.18,0,0,0,3.49-.89,2.22,2.22,0,0,0,1-1.84,2,2,0,0,0-1.18-1.84c-.75-.38-3.4-1-7.93-1.82a14.42,14.42,0,0,1-6.87-3,7.31,7.31,0,0,1-2.41-5.35,8.8,8.8,0,0,1,2.95-7.12q3.11-2.82,9.77-3t10.15,2.52a9.4,9.4,0,0,1,3.5,7.22l-7.66.26a5,5,0,0,0-1.13-2.83q-1.46-1.45-5.24-1.33a7.92,7.92,0,0,0-3.51.79,2.22,2.22,0,0,0-.12,3.92q1.08.63,7.94,2,4.95,1,7,2.81a6.61,6.61,0,0,1,2.19,5.12,9,9,0,0,1-2.9,7q-3,3-8.73,3.18A16.39,16.39,0,0,1,425.73,797.57Z" transform="translate(-5.03 -5.03)" style="fill:#124689"/><path d="M390.2,777.32a9.63,9.63,0,0,1,2.94-5.08q3.92-4,10.58-3.69a14.68,14.68,0,0,1,9.54,4q4,3.75,3.63,11.74c-.26,5-1.71,8.76-4.38,11.3a13,13,0,0,1-10.06,3.5,15.06,15.06,0,0,1-6.41-1.68,11.25,11.25,0,0,1-4.55-4.5,14.5,14.5,0,0,1-1.9-6.06,38.26,38.26,0,0,1,.05-5.73l19.74,1q.06-4.35-2.42-6.22a6.36,6.36,0,0,0-3.7-1.27,5.41,5.41,0,0,0-3.85,1.13,6.29,6.29,0,0,0-1.51,1.91Zm7,9.21a6.63,6.63,0,0,0,1.59,4.63,5.61,5.61,0,0,0,4,1.75,5.11,5.11,0,0,0,4.14-1.44,8.13,8.13,0,0,0,2-4.35Z" transform="translate(-5.03 -5.03)" style="fill:#124689"/><path d="M358.47,783.3l7.67,1.05a6.76,6.76,0,0,0,.68,3,4.57,4.57,0,0,0,3.68,2.27,5.21,5.21,0,0,0,5.68-3,15.92,15.92,0,0,0,1.46-5.21,14.32,14.32,0,0,0-.05-5.16A5,5,0,0,0,373,772a4.49,4.49,0,0,0-3.92.91,7.08,7.08,0,0,0-1.84,3.49l-7.64-1a12.57,12.57,0,0,1,3.35-6.12q4.18-4.43,11.09-3.49t9.6,5.48q2.7,4.54,1.81,11.07-1,7.38-5.16,11T369.85,796a15,15,0,0,1-8.48-3.61Q358.27,789.51,358.47,783.3Z" transform="translate(-5.03 -5.03)" style="fill:#124689"/><path d="M342.27,766.48l1.14-5.53,3.53.6c3.52.6,5.78,1.69,6.79,3.29a5.51,5.51,0,0,1,.43,4.17l-3.59,17.42,3.95.81-1.09,5.27-3.94-.82-1.63,7.89-7.31-1.5,1.62-7.89-4.59-1,1.08-5.27,4.6.95L346.34,770a3.39,3.39,0,0,0,0-2.26c-.23-.34-1.1-.67-2.61-1l-.71-.13Z" transform="translate(-5.03 -5.03)" style="fill:#124689"/><path d="M321.8,796.29l1.72-6.76,7.42,1.9-1.72,6.75Zm2.57-10.09,7.13-28,7.42,1.89-7.13,28Z" transform="translate(-5.03 -5.03)" style="fill:#124689"/><path d="M294.5,773.21a17.95,17.95,0,0,1,6.74-20.64q4.88-3.17,12-.85t9.15,7.74a17.94,17.94,0,0,1-6.74,20.64q-4.91,3.23-12,.92T294.5,773.21ZM305.64,775a6,6,0,0,0,5.57-.64A10.86,10.86,0,0,0,315,768.5q1.35-4.12.38-6.92a6.67,6.67,0,0,0-9.68-3.17,11,11,0,0,0-3.77,5.82q-1.35,4.14-.39,6.91A6,6,0,0,0,305.64,775Z" transform="translate(-5.03 -5.03)" style="fill:#124689"/><path d="M273.14,762.5a5.24,5.24,0,0,0,6.13-.9,11.26,11.26,0,0,0,2.43-3.75l6.18-14.35,6.91,3L283.38,773l-6.69-2.88,1.67-3.87a13.11,13.11,0,0,1-3.8,1.85,9.57,9.57,0,0,1-6.12-.73,11.17,11.17,0,0,1-5.8-5.06Q261,759,263.1,754l7.7-17.85,7.11,3.06-7,16.13a8.06,8.06,0,0,0-.82,3.45C270.22,760.44,271.23,761.68,273.14,762.5Z" transform="translate(-5.03 -5.03)" style="fill:#124689"/><path d="M217.71,735.25a16.93,16.93,0,0,1,2.48-11.17,16.74,16.74,0,0,1,8.76-7.41q5.46-2,11.84,1.88t7.16,9.61a16.75,16.75,0,0,1-2.5,11.2,16.92,16.92,0,0,1-8.74,7.38q-5.51,2-11.87-1.83C220.59,742.35,218.22,739.12,217.71,735.25Zm10.46,4.21a6,6,0,0,0,5.58.64,13.44,13.44,0,0,0,6.93-11.46,6.69,6.69,0,0,0-8.72-5.28,11,11,0,0,0-5,4.82q-2.25,3.72-1.94,6.64A6,6,0,0,0,228.17,739.46Z" transform="translate(-5.03 -5.03)" style="fill:#124689"/><path d="M190.49,733.45l3.54-5c.32.28.88.73,1.68,1.32a2.42,2.42,0,0,0,2.07.65,2.37,2.37,0,0,0,1.36-.94l1.4-2-4-2.85,3.07-4.36,4.05,2.86,13.42-19,6.15,4.33-13.42,19,3.45,2.42-3.07,4.36-3.38-2.39-1.07,1.52c-1.78,2.52-3.43,4-5,4.32q-2.83,1.17-8-2.45c-.39-.27-.73-.53-1-.78Z" transform="translate(-5.03 -5.03)" style="fill:#124689"/><path d="M184.05,684.53l3.68-4.28,2.8,2.23c2.79,2.23,4.23,4.29,4.34,6.17a5.52,5.52,0,0,1-1.65,3.87L181.64,706l3.05,2.62-3.5,4.08-3.06-2.62-5.25,6.11-5.66-4.87,5.24-6.11-3.55-3.06,3.5-4.08,3.56,3.06,9.95-11.57c.77-.9,1.14-1.56,1.1-2s-.64-1.12-1.81-2.12l-.56-.47Z" transform="translate(-5.03 -5.03)" style="fill:#124689"/><path d="M161,666.59a9.56,9.56,0,0,1,5.56-1.85q5.61-.4,10.37,4.28a14.61,14.61,0,0,1,4.44,9.35q.51,5.48-5.09,11.19-5.27,5.34-10.78,5.53a13,13,0,0,1-9.84-4.06,15.15,15.15,0,0,1-3.68-5.52,11.35,11.35,0,0,1-.41-6.38,14.43,14.43,0,0,1,2.61-5.8,38.58,38.58,0,0,1,3.84-4.24l14.1,13.85c1.95-2.14,2.73-4.22,2.32-6.26a6.39,6.39,0,0,0-1.92-3.41,5.41,5.41,0,0,0-3.63-1.71,6.28,6.28,0,0,0-2.39.43Zm-.88,11.55a6.57,6.57,0,0,0-1.89,4.51,5.63,5.63,0,0,0,1.8,3.94,5.15,5.15,0,0,0,4,1.68,8.19,8.19,0,0,0,4.41-1.91Z" transform="translate(-5.03 -5.03)" style="fill:#124689"/><path d="M133.29,650l5,5.87a6.73,6.73,0,0,0-1.51,2.72,4.56,4.56,0,0,0,1.24,4.14,5.21,5.21,0,0,0,6.28,1.5,15.85,15.85,0,0,0,4.54-2.92,14.75,14.75,0,0,0,3.41-3.89,5.05,5.05,0,0,0-.58-6.21,4.48,4.48,0,0,0-3.53-1.92,7,7,0,0,0-3.7,1.38l-5-5.85a12.64,12.64,0,0,1,6.57-2.35q6.06-.52,10.6,4.76t3.53,10.48q-1,5.19-6,9.47Q148.5,672,143,671.92T133.34,667a15.09,15.09,0,0,1-3.93-8.33Q129,654.46,133.29,650Z" transform="translate(-5.03 -5.03)" style="fill:#124689"/><path d="M115.87,623.29l13.8-9.86,4.48,6.28-14.29,10.21a7.63,7.63,0,0,0-2.6,2.83q-1,2,.64,4.36a5.38,5.38,0,0,0,4.27,2.53,9.15,9.15,0,0,0,5.54-2l12.73-9.09,4.37,6.13-31.68,22.62-4.37-6.13,11.23-8a9.32,9.32,0,0,1-5.06-1.05,10.74,10.74,0,0,1-3.45-3.12,12.26,12.26,0,0,1-2.07-4.5,8.46,8.46,0,0,1,.22-4.57,7.48,7.48,0,0,1,1.86-3.12A40,40,0,0,1,115.87,623.29Z" transform="translate(-5.03 -5.03)" style="fill:#124689"/><path d="M99.58,608.61a5.27,5.27,0,0,0,5.48,2.91,11.16,11.16,0,0,0,4.17-1.58l13.5-7.88,3.79,6.5-24.89,14.53L98,616.8l3.64-2.12a12.79,12.79,0,0,1-4.16-.77A9.52,9.52,0,0,1,93,609.69a11.07,11.07,0,0,1-1.67-7.51q.59-3.63,5.27-6.38l16.8-9.8,3.9,6.68-15.17,8.86a7.79,7.79,0,0,0-2.71,2.29C98.46,605.21,98.53,606.81,99.58,608.61Z" transform="translate(-5.03 -5.03)" style="fill:#124689"/><path d="M77.57,569.64a17.94,17.94,0,0,1,19.67-9.19q5.64,1.39,8.79,8.14t.61,12A17.94,17.94,0,0,1,87,589.76q-5.7-1.38-8.85-8.12T77.57,569.64ZM83.91,579a6.06,6.06,0,0,0,4.29,3.63c1.92.42,4.19,0,6.82-1.21a11,11,0,0,0,5.31-4.46A6.68,6.68,0,0,0,96,567.69a10.94,10.94,0,0,0-6.83,1.23,11,11,0,0,0-5.31,4.44A6,6,0,0,0,83.91,579Z" transform="translate(-5.03 -5.03)" style="fill:#124689"/><path d="M61,565.39l-2.75-7,36.39-14.2,2.74,7Z" transform="translate(-5.03 -5.03)" style="fill:#124689"/><path d="M60.86,522.81a17.94,17.94,0,0,1,20.7-6.54q5.41,2.12,7.65,9.22t-1,12A16.69,16.69,0,0,1,79,544.2,16.84,16.84,0,0,1,67.55,544q-5.47-2.1-7.72-9.21T60.86,522.81Zm5.07,10.07A6,6,0,0,0,69.7,537a10.78,10.78,0,0,0,6.92-.31A10.89,10.89,0,0,0,82.47,533a6.69,6.69,0,0,0-3.07-9.72,11,11,0,0,0-6.92.33,10.9,10.9,0,0,0-5.85,3.71A6,6,0,0,0,65.93,532.88Z" transform="translate(-5.03 -5.03)" style="fill:#124689"/><path d="M85.92,498.24a6.37,6.37,0,0,0,.14-4.23c-.57-2.66-1.85-4.24-3.82-4.75a13.86,13.86,0,0,0-5.94.36l-1.81.39a8.43,8.43,0,0,1,6.13,7.05,11.06,11.06,0,0,1-1.93,9.52q-3.12,4.08-9.64,5.49a17.84,17.84,0,0,1-11.26-.84,10.59,10.59,0,0,1-6.21-8,9.94,9.94,0,0,1-.16-3.84,9.18,9.18,0,0,1,3.15-5.24l-4.06.89L49,487.9l26.78-5.8q5.46-1.19,8.63,0,5.44,2.13,7.39,11.09a16.93,16.93,0,0,1-.21,9.29A8,8,0,0,1,86,507.69l-1.74-8A3.41,3.41,0,0,0,85.92,498.24Zm-14.31,4.41A5.52,5.52,0,0,0,74,496.49a5.83,5.83,0,0,0-2.9-4c-1.56-.9-3.77-1-6.62-.43-2.67.58-4.59,1.58-5.74,3a5.68,5.68,0,0,0-1.11,5,5.48,5.48,0,0,0,4.81,4.57,13.25,13.25,0,0,0,5-.27A11,11,0,0,0,71.61,502.65Z" transform="translate(-5.03 -5.03)" style="fill:#124689"/><path d="M67.27,465.31l-21.88-3.25-1-8,29.42,6.28q8.51,1.81,10.68,3.22c1.44.94,2.37,3.06,2.79,6.38.08.66.15,1.2.19,1.6s.09,1,.14,1.83l-6,.75-.06-.95a12.15,12.15,0,0,0-.35-2.09,3.72,3.72,0,0,0-.82-1.61,4.05,4.05,0,0,0-2-1,4.19,4.19,0,0,0-1.79-.24L48,482.56l-1-8.33Z" transform="translate(-5.03 -5.03)" style="fill:#124689"/><path d="M46.28,429.88q-3.8-3-3.76-10.3a18.2,18.2,0,0,1,1.92-8.42c1.26-2.44,3.64-3.66,7.12-3.64l13.24.06c.92,0,2,0,3.34,0a4.2,4.2,0,0,0,2-.44A2.65,2.65,0,0,0,71,406h1.11l0,8.21a7.77,7.77,0,0,1-1.64.47c-.52.09-1.1.15-1.75.2a15.85,15.85,0,0,1,2.87,3.62A10.83,10.83,0,0,1,73,424a9.53,9.53,0,0,1-2.27,6.47A8,8,0,0,1,64.34,433c-3.55,0-6.11-1.4-7.69-4.14a18.3,18.3,0,0,1-1.83-6.63l-.3-2.57a11.83,11.83,0,0,0-.65-3A2.28,2.28,0,0,0,51.73,415a2.54,2.54,0,0,0-2.45,1.22,7.65,7.65,0,0,0-.7,3.62,4.71,4.71,0,0,0,1.31,3.79,5.5,5.5,0,0,0,2.64,1.07l0,7.29A11.09,11.09,0,0,1,46.28,429.88Zm20.33-5.52a3.94,3.94,0,0,0,.88-2.59,7.64,7.64,0,0,0-1.41-4.5q-1.41-2.06-5.21-2.16h-2.8a9.31,9.31,0,0,1,.72,1.45,11.75,11.75,0,0,1,.5,2l.31,1.7a11.13,11.13,0,0,0,1,3.42,3.44,3.44,0,0,0,3.2,1.76A3.31,3.31,0,0,0,66.61,424.36Z" transform="translate(-5.03 -5.03)" style="fill:#124689"/><path d="M50.45,386.22a5.27,5.27,0,0,0,2.75,5.56,11.31,11.31,0,0,0,4.31,1.14l15.57,1.45-.7,7.5-28.7-2.68.67-7.26,4.2.4a12.75,12.75,0,0,1-2.94-3.05,9.54,9.54,0,0,1-1.19-6,11.2,11.2,0,0,1,3-7.08c1.74-1.74,4.41-2.45,8-2.11l19.36,1.8-.71,7.71L56.6,381.93a7.86,7.86,0,0,0-3.54.28Q50.74,383.11,50.45,386.22Z" transform="translate(-5.03 -5.03)" style="fill:#124689"/><path d="M42.15,336.86l38.34,7.19-1.35,7.21-3.94-.74a10.72,10.72,0,0,1,3,4.31,10.44,10.44,0,0,1,.2,5.27,10.75,10.75,0,0,1-5.6,7.62,15.71,15.71,0,0,1-11,1.46q-7.26-1.37-10.81-5.49A11.09,11.09,0,0,1,48.54,354a9.41,9.41,0,0,1,2-4.38,9.13,9.13,0,0,1,3.74-2.66l-13.54-2.54Zm20.58,24.56A11.37,11.37,0,0,0,69.3,361a5.32,5.32,0,0,0,3.25-4.25,5.58,5.58,0,0,0-1.45-5.23,10.63,10.63,0,0,0-5.76-2.78q-5.21-1-7.94,1.24a5.76,5.76,0,0,0-2.06,3.49,5.3,5.3,0,0,0,1.57,5.24A11.49,11.49,0,0,0,62.73,361.42Z" transform="translate(-5.03 -5.03)" style="fill:#124689"/><path d="M48.94,311.25,51.16,304,88.5,315.47l-2.22,7.22Z" transform="translate(-5.03 -5.03)" style="fill:#124689"/><path d="M56,289.06l6.57,2.31L60,298.6l-6.58-2.31Zm9.82,3.45,27.25,9.56-2.53,7.23-27.25-9.56Z" transform="translate(-5.03 -5.03)" style="fill:#124689"/><path d="M101.91,282a10.41,10.41,0,0,1-3.57,4.73,11.56,11.56,0,0,1-3.84,1.42l3.34,1.42-2.9,6.8L59.07,281l3-6.92,12.77,5.44a11,11,0,0,1-1.59-4.1,9.41,9.41,0,0,1,.82-5.3,10.71,10.71,0,0,1,7.28-6.59q5-1.35,11,1.2a18.63,18.63,0,0,1,9,7.3A10.31,10.31,0,0,1,101.91,282Zm-12-9.6a13.87,13.87,0,0,0-5-1.27,5.54,5.54,0,0,0-5.69,3.62,5.61,5.61,0,0,0,1.22,6.66,14.06,14.06,0,0,0,4.41,2.75,10.78,10.78,0,0,0,6.3.9,5.63,5.63,0,0,0,4.21-3.65,5.19,5.19,0,0,0-.39-5.09A10.69,10.69,0,0,0,89.93,272.37Z" transform="translate(-5.03 -5.03)" style="fill:#124689"/><path d="M112.38,240.43a9.59,9.59,0,0,1,3.34,4.83c1.3,3.5.91,7.22-1.2,11.14a14.65,14.65,0,0,1-7.72,6.9q-5.11,2-12.17-1.75Q88,258,86.29,252.77a13,13,0,0,1,1.14-10.59,15.05,15.05,0,0,1,4.25-5.08,11.43,11.43,0,0,1,6-2.19,14.39,14.39,0,0,1,6.29.88,37.61,37.61,0,0,1,5.16,2.49L99.81,255.7c2.6,1.28,4.82,1.43,6.66.47a6.38,6.38,0,0,0,2.73-2.8,5.38,5.38,0,0,0,.63-4,6.35,6.35,0,0,0-1.09-2.18Zm-11.33,2.41a6.54,6.54,0,0,0-4.86-.55,5.62,5.62,0,0,0-3.28,2.83,5.15,5.15,0,0,0-.47,4.36,8.13,8.13,0,0,0,3.07,3.7Z" transform="translate(-5.03 -5.03)" style="fill:#124689"/><path d="M111.71,216.38q-2.43,3.85-.76,6.76a11.54,11.54,0,0,0,3.88,3.49L126.5,234l-4.06,6.43L98,225l3.85-6.09,4.26,2.69a15.74,15.74,0,0,1-1.71-4.69,8.24,8.24,0,0,1,1.44-5.6l.2-.3c.06-.08.19-.25.38-.53l6.55,4.14c-.3.37-.56.71-.77,1S111.84,216.19,111.71,216.38Z" transform="translate(-5.03 -5.03)" style="fill:#124689"/><path d="M113.32,207q-1.29-4.67,3-10.54a18.18,18.18,0,0,1,6.51-5.66q3.69-1.86,7.9,1.24l10.67,7.86c.74.54,1.64,1.19,2.72,1.93a4,4,0,0,0,1.89.83,2.61,2.61,0,0,0,1.36-.37l.9.66-4.87,6.61a8.35,8.35,0,0,1-1.61-.59c-.46-.23-1-.52-1.53-.86a15.77,15.77,0,0,1,.19,4.61,10.91,10.91,0,0,1-2.14,5.27,9.5,9.5,0,0,1-5.65,3.89,8,8,0,0,1-6.62-1.71q-4.29-3.15-3.78-7.88a18.41,18.41,0,0,1,2.44-6.43l1.27-2.26a11.89,11.89,0,0,0,1.24-2.8,2.26,2.26,0,0,0-.77-2.57,2.54,2.54,0,0,0-2.7-.47,7.77,7.77,0,0,0-2.69,2.52,4.69,4.69,0,0,0-1.18,3.83,5.51,5.51,0,0,0,1.5,2.43l-4.32,5.86A11.07,11.07,0,0,1,113.32,207ZM133,214.54a4,4,0,0,0,2.24-1.58,7.65,7.65,0,0,0,1.51-4.46q.08-2.5-2.94-4.81L131.55,202a8.1,8.1,0,0,1-.27,1.6,11.47,11.47,0,0,1-.77,1.91l-.75,1.56a11.07,11.07,0,0,0-1.19,3.36,3.47,3.47,0,0,0,1.54,3.31A3.31,3.31,0,0,0,133,214.54Z" transform="translate(-5.03 -5.03)" style="fill:#124689"/><path d="M121.37,174.55l4.85-5.78,29.93,25.08-4.85,5.79Z" transform="translate(-5.03 -5.03)" style="fill:#124689"/><path d="M154.17,157.78c-.33-3.22,1.27-6.51,4.77-9.87a18.26,18.26,0,0,1,7.39-4.47c2.64-.79,5.16.06,7.57,2.58l9.17,9.56c.64.66,1.42,1.45,2.35,2.37a4.06,4.06,0,0,0,1.72,1.14,2.62,2.62,0,0,0,1.41-.14l.77.81-5.93,5.68a8.49,8.49,0,0,1-1.48-.85c-.42-.31-.88-.69-1.37-1.12a15.59,15.59,0,0,1-.6,4.58,10.88,10.88,0,0,1-3,4.83,9.47,9.47,0,0,1-6.23,2.86,8,8,0,0,1-6.24-2.81c-2.45-2.56-3.25-5.36-2.37-8.4a18.12,18.12,0,0,1,3.5-5.93l1.63-2a11.54,11.54,0,0,0,1.71-2.55,2.26,2.26,0,0,0-.32-2.66,2.55,2.55,0,0,0-2.59-.92,7.73,7.73,0,0,0-3.08,2,4.71,4.71,0,0,0-1.82,3.57,5.52,5.52,0,0,0,1.07,2.65l-5.26,5A11,11,0,0,1,154.17,157.78Zm18.1,10.76a3.9,3.9,0,0,0,2.48-1.16,7.76,7.76,0,0,0,2.25-4.14q.48-2.46-2.08-5.25L173,156a8.79,8.79,0,0,1-.54,1.52,11.85,11.85,0,0,1-1.08,1.76l-1,1.4a11.16,11.16,0,0,0-1.75,3.11,3.47,3.47,0,0,0,1,3.53A3.28,3.28,0,0,0,172.27,168.54Z" transform="translate(-5.03 -5.03)" style="fill:#124689"/><path d="M189.85,130.94q-3.51,2.91-2.82,6.2a11.8,11.8,0,0,0,2.61,4.51l8.82,10.62-5.85,4.86L174.17,134.9l5.54-4.6,3.22,3.88a15.64,15.64,0,0,1-.18-5,8.28,8.28,0,0,1,3.11-4.88,3.24,3.24,0,0,1,.28-.22l.53-.39,4.94,6c-.4.26-.75.51-1.05.73S190,130.8,189.85,130.94Z" transform="translate(-5.03 -5.03)" style="fill:#124689"/><path d="M216.94,131.3l3.35,4.54-2.8,2.23c-2.8,2.22-5.13,3.16-7,2.84a5.51,5.51,0,0,1-3.4-2.47l-10.54-14.31-3.24,2.38-3.19-4.33,3.24-2.38-4.77-6.49,6-4.43,4.78,6.49,3.78-2.78,3.19,4.33-3.78,2.78,9,12.29c.7.95,1.26,1.46,1.67,1.51s1.24-.37,2.48-1.28l.58-.44Z" transform="translate(-5.03 -5.03)" style="fill:#124689"/><path d="M225.46,99.25q4,0,7.29,4.21l-6.36,4.06a4.48,4.48,0,0,0-1.94-1.51c-1.25-.41-2.71-.09-4.4,1a6.14,6.14,0,0,0-2.55,2.53,2.22,2.22,0,0,0,.09,2.08,2,2,0,0,0,1.95,1,49.3,49.3,0,0,0,7.76-2.46,14.43,14.43,0,0,1,7.42-.93,7.33,7.33,0,0,1,4.8,3.39,8.79,8.79,0,0,1,1.07,7.62q-1.23,4-6.87,7.6t-10,3a9.32,9.32,0,0,1-6.67-4.43l6.45-4.11a5.07,5.07,0,0,0,2.41,1.85c1.33.35,3.06-.16,5.19-1.51a8,8,0,0,0,2.63-2.46,2.22,2.22,0,0,0-1.89-3.44q-1.26,0-7.86,2.3-4.8,1.61-7.47,1.15a6.61,6.61,0,0,1-4.49-3.3,9,9,0,0,1-1.05-7.49q1.11-4.11,5.91-7.17A16.37,16.37,0,0,1,225.46,99.25Z" transform="translate(-5.03 -5.03)" style="fill:#124689"/><path d="M244.9,110.72l7-3.87,3.81,6.91-7,3.88Z" transform="translate(-5.03 -5.03)" style="fill:#124689"/></g></g><g id="innerRing"><path d="M757.3,421a335.8,335.8,0,1,1-25.56-128.71A336.61,336.61,0,0,1,757.3,421Zm-16,0A320.3,320.3,0,0,0,154.67,243.06l-4.25,6.62L148.3,253c-.71,1.1-1.42,2.21-2.05,3.35l-3.92,6.82-2,3.41c-.34.56-.55,1.19-.84,1.78a5.37,5.37,0,0,1-1.22,1.57,59.74,59.74,0,0,1-6.32,5.62,53.92,53.92,0,0,0-6.54,5.69c-3.89,4.08-5.7,9.2-7.8,14.13l-.37.94-.18.47a.64.64,0,0,0,0,.53,2.48,2.48,0,0,0,.51.75,11.78,11.78,0,0,0,1,.95l2.55,2.1a14.91,14.91,0,0,1,1.16,1,3.39,3.39,0,0,1,.63.78.83.83,0,0,1,.16.59l0,.52c0,.69-.12,1.36-.2,2a18.45,18.45,0,0,1-1,3.79c-.51,1.21-1,2.4-1.65,3.57a52.69,52.69,0,0,0-3.3,7.17c-.82,2.48-1.76,4.94-2.41,7.47l-2.15,7.57c-.69,2.52-1.51,5-2,7.59l-1.77,7.65-.88,3.83-.44,1.92-.34,1.93A320.32,320.32,0,1,0,741.3,421Z" transform="translate(-5.03 -5.03)" style="fill:#124689"/></g><g id="图层_1" data-name="图层 1"><path d="M147.92,252.46c3-1.74,5-2.84,5.88-3.28a172.3,172.3,0,0,1,35-13.5A186.46,186.46,0,0,1,248,230.25c13.46.88,45.91,3.37,80.32,23.93,0,0,37,22.17,55,56.5a57,57,0,0,1,5.32,13.15c3.17,12.32,4.27,34.89-8.61,42.77-8.78,5.37-20,1.64-23.21.58-7.21-2.42-10.46-6.19-20.75-15.25-5.26-4.63-13-11.2-22.88-18.77h0c-5.52-4.15-22.78-14-50.37-15.48a137.4,137.4,0,0,0-61.25,11.5,140.93,140.93,0,0,0-32.5,19.75c-2.87,3.74-15.26,19-36.43,21.73-12.06,1.56-31.91-.3-41.34-13.32a33.19,33.19,0,0,1-5.23-11.28,59.08,59.08,0,0,1,0-22.41,63.35,63.35,0,0,1,9.81-22.92c16.29-25.15,40.67-41.52,52.06-48.27m-4.66,17c-10.83,7.29-25.35,18.94-23.6,22.1,1,1.79,5.92-1.51,15-.25,2.66.38,11.78,1.77,19.13,9.08,5.6,5.56,7.44,11.83,9.08,17.42a54.8,54.8,0,0,1,2.21,16.2,163.89,163.89,0,0,1,29.25-16.11c8.19-3.48,26.32-11,48.8-12.36,8.27-.49,49-2.93,81.2,22.11,14.44,11.22,32.13,31.8,43.16,29.91,6.45-1.11,9.34-4.91,9.34-4.91,1.78-2.35,2.13-4.85,2.45-7.35a34,34,0,0,0-1.2-13.4,81.52,81.52,0,0,0-7.89-19.24,119.38,119.38,0,0,0-13.74-19.87c-17-19.92-38.69-31.67-41.79-33.31-30.81-16.38-59.54-17.29-73.58-17.58,0,0-42.61-.88-80.17,17.27A143.25,143.25,0,0,0,143.26,269.49Zm134.79,80.19" transform="translate(-5.03 -5.03)" style="fill:#124689"/><path d="M687.55,471.32a262.35,262.35,0,0,1-33.5,104.55c-47.63,82.37-127,112.65-158.83,122.31-80.72,24.52-148.61,5.55-171.67-2-26.07-8.54-85.23-32.09-133.33-92a285.5,285.5,0,0,1-58.89-132.86h13.19a265,265,0,0,0,55.7,125.86c48.31,59.46,108.16,79.38,129,86,80,25.43,147,6.92,161.33,2.66,28.71-8.51,104.13-36.14,150.4-113.76a250,250,0,0,0,33.44-100.76Z" transform="translate(-5.03 -5.03)" style="fill:#124689"/><path d="M423.18,359.46a33.07,33.07,0,0,1-5.24-11.28,59.08,59.08,0,0,1,0-22.41,63.28,63.28,0,0,1,9.82-22.91c20.5-31.67,53.83-49.42,57.94-51.56a172.3,172.3,0,0,1,35-13.5,186.38,186.38,0,0,1,59.17-5.43c13.47.88,45.92,3.37,80.33,23.93,0,0,36.95,22.17,55,56.5A57.22,57.22,0,0,1,720.52,326c3.17,12.32,4.26,34.89-8.61,42.77-8.78,5.37-20,1.65-23.21.58-7.21-2.42-10.46-6.19-20.75-15.25-5.26-4.63-13-11.2-22.88-18.77h0c-5.53-4.14-22.78-14-50.37-15.48a137.38,137.38,0,0,0-61.25,11.5A140.93,140.93,0,0,0,501,351.05c-2.88,3.74-15.26,19-36.44,21.74C452.46,374.34,432.61,372.48,423.18,359.46Zm276.18.25c6.45-1.1,9.34-4.91,9.34-4.91,1.78-2.35,2.13-4.85,2.45-7.35a34,34,0,0,0-1.2-13.4,81.52,81.52,0,0,0-7.89-19.24,118.81,118.81,0,0,0-13.74-19.87,141.18,141.18,0,0,0-23.52-21C624.21,245.56,573,244.05,573,244.05c-16.24-.48-47.67.88-80.17,17.28-23.46,11.83-43,29.24-41.22,32.38.84,1.5,5.85-1.51,15-.24,2.66.37,11.79,1.77,19.14,9.07,5.59,5.56,7.44,11.83,9.08,17.42a55.13,55.13,0,0,1,2.21,16.2,163.89,163.89,0,0,1,29.25-16.11c8.19-3.48,26.32-11,48.8-12.36,8.26-.49,49-2.93,81.2,22.11C670.64,341,688.33,361.6,699.36,359.71ZM610,351.8" transform="translate(-5.03 -5.03)" style="fill:#124689"/></g></svg>